<?xml version="1.0" standalone="no"?>
<!DOCTYPE svg PUBLIC "-//W3C//DTD SVG 20010904//EN"
 "http://www.w3.org/TR/2001/REC-SVG-20010904/DTD/svg10.dtd">
<svg version="1.0" xmlns="http://www.w3.org/2000/svg"
 width="300.000000pt" height="183.000000pt" viewBox="0 0 300.000000 183.000000"
 preserveAspectRatio="xMidYMid meet">
<metadata>
Created by potrace 1.10, written by Peter Selinger 2001-2011
</metadata>
<g transform="translate(0.000000,183.000000) scale(0.100000,-0.100000)"
fill="#efefef" stroke="none">
<path d="M66 1232 c-15 -17 -16 -52 -14 -348 l3 -329 60 0 60 0 5 248 5 249
28 -59 c78 -159 211 -401 233 -421 20 -17 37 -22 84 -22 95 0 90 -19 90 360 0
362 4 340 -65 340 -68 0 -65 12 -65 -244 l0 -231 -71 135 c-178 342 -176 340
-274 340 -47 0 -66 -4 -79 -18z m168 -14 c22 -20 155 -262 233 -421 l28 -59 5
249 5 248 50 0 50 0 3 -324 c2 -230 -1 -328 -9 -337 -13 -16 -111 -19 -139 -4
-15 8 -137 228 -269 485 l-20 40 -1 -267 0 -268 -55 0 -55 0 0 328 c0 242 3
331 12 340 7 7 39 12 74 12 51 0 68 -4 88 -22z"/>
<path d="M953 1238 c-18 -23 -234 -661 -229 -675 7 -17 120 -18 133 0 6 6 20
43 33 80 l22 68 125 -3 126 -3 26 -75 26 -75 70 0 c62 0 70 2 73 20 3 22 -201
616 -224 653 -13 20 -22 22 -93 22 -51 0 -82 -4 -88 -12z m181 -30 c34 -81
216 -612 216 -629 0 -17 -8 -19 -64 -19 l-64 0 -27 80 -27 80 -132 0 -132 0
-25 -77 -25 -78 -63 -3 -63 -3 6 27 c14 56 217 629 228 641 7 9 36 13 85 13
l74 0 13 -32z"/>
<path d="M1025 1099 c-33 -89 -92 -279 -87 -283 7 -8 187 -8 194 0 7 6 -80
274 -93 288 -5 6 -11 4 -14 -5z m55 -135 c22 -65 40 -124 40 -131 0 -10 -22
-13 -85 -13 -61 0 -85 3 -85 12 0 19 81 260 86 255 3 -2 22 -57 44 -123z"/>
<path d="M1352 1237 c-8 -9 19 -101 99 -336 60 -178 114 -330 120 -338 14 -16
160 -18 176 -2 19 19 227 654 220 672 -5 13 -18 17 -59 17 -29 0 -58 -4 -65
-8 -7 -4 -49 -124 -93 -267 -45 -143 -82 -260 -83 -262 -2 -1 -40 116 -85 259
-46 144 -88 266 -95 270 -20 13 -124 9 -135 -5z m165 -97 c18 -52 57 -175 88
-274 31 -98 60 -175 64 -170 5 5 43 124 86 264 44 140 83 261 88 268 6 7 32
12 63 12 49 0 54 -2 53 -22 0 -13 -49 -165 -108 -338 l-107 -315 -85 0 -84 0
-107 315 c-58 173 -107 325 -107 338 -1 22 2 23 62 20 l62 -3 32 -95z"/>
<path d="M2083 1243 c-10 -4 -13 -82 -13 -343 0 -378 -6 -350 75 -350 81 0 75
-28 75 350 0 299 -2 339 -16 344 -18 7 -103 7 -121 -1z m122 -343 l0 -335 -60
0 -60 0 -3 325 c-1 179 0 331 3 338 3 9 22 12 62 10 l58 -3 0 -335z"/>
<path d="M2397 1236 c-15 -16 -17 -50 -17 -336 0 -286 2 -320 17 -335 15 -15
35 -17 167 -12 107 3 165 10 198 22 66 23 140 93 169 157 21 47 24 68 24 173
0 106 -3 126 -25 169 -33 68 -90 121 -158 147 -46 17 -85 23 -208 27 -132 4
-152 3 -167 -12z m368 -22 c32 -11 68 -36 101 -68 66 -67 89 -143 82 -273 -9
-150 -71 -247 -186 -288 -62 -23 -334 -34 -357 -15 -13 11 -15 60 -15 329 0
240 3 320 13 330 19 20 296 9 362 -15z"/>
<path d="M2520 901 l0 -241 58 0 c69 0 126 15 164 43 88 65 103 275 26 363
-44 50 -80 65 -170 71 l-78 6 0 -242z m188 205 c83 -43 119 -157 91 -288 -21
-96 -97 -148 -216 -148 l-53 0 0 231 0 232 74 -6 c40 -3 87 -12 104 -21z"/>
</g>
</svg>
